<?xml version="1.0" standalone="no"?>
<!DOCTYPE svg PUBLIC "-//W3C//DTD SVG 20010904//EN"
 "http://www.w3.org/TR/2001/REC-SVG-20010904/DTD/svg10.dtd">
<svg version="1.0" xmlns="http://www.w3.org/2000/svg"
 width="700.000000pt" height="700.000000pt" viewBox="0 0 700.000000 700.000000"
 preserveAspectRatio="xMidYMid meet">
<metadata>
Created by potrace 1.14, written by Peter Selinger 2001-2017
</metadata>
<g transform="translate(0.000000,700.000000) scale(0.100000,-0.100000)"
fill="#000000" stroke="none">
<path d="M325 5809 c-77 -10 -121 -54 -131 -132 -6 -39 -2 -54 33 -118 37 -70
285 -517 303 -549 8 -13 156 -279 230 -415 15 -27 69 -124 119 -214 50 -90 91
-166 91 -168 0 -2 10 -20 23 -41 13 -20 41 -68 62 -107 21 -38 57 -104 80
-145 40 -72 69 -124 136 -247 18 -32 47 -84 65 -116 19 -32 34 -59 34 -61 0
-2 22 -41 49 -88 26 -46 70 -124 96 -173 27 -50 59 -107 72 -127 13 -21 23
-39 23 -42 0 -3 93 -172 208 -376 13 -25 35 -63 47 -85 12 -22 37 -67 55 -100
19 -33 166 -298 327 -590 162 -291 308 -543 324 -560 26 -27 36 -30 88 -30 74
0 89 13 176 145 34 52 138 210 230 350 291 441 395 600 410 630 30 58 20 96
-61 240 -41 74 -88 158 -104 185 -15 28 -48 86 -72 130 -25 44 -58 103 -73
130 -16 28 -116 205 -223 395 -107 190 -225 399 -262 465 -37 66 -76 136 -87
155 -11 19 -93 166 -183 325 -90 160 -172 306 -183 325 -11 19 -39 69 -62 110
-23 41 -51 91 -62 110 -11 19 -35 62 -53 95 -18 33 -71 128 -118 210 -47 83
-96 170 -110 195 -78 143 -127 227 -141 244 -42 49 -32 48 -695 49 -342 1
-639 0 -661 -4z"/>
<path d="M3024 5812 c-105 -17 -158 -131 -107 -228 49 -93 74 -138 82 -148 4
-6 28 -49 53 -96 25 -47 100 -183 166 -303 67 -119 133 -238 147 -265 15 -26
30 -54 35 -62 13 -22 81 -145 125 -225 50 -90 61 -112 89 -160 55 -99 681
-1228 734 -1325 19 -36 63 -114 97 -175 34 -60 78 -139 97 -175 20 -36 102
-184 183 -330 82 -146 164 -294 183 -330 19 -36 42 -76 50 -90 9 -14 30 -52
48 -85 59 -112 316 -570 327 -583 36 -44 36 -44 708 -44 350 0 651 3 668 7 34
7 88 63 97 101 15 59 -6 105 -247 540 -133 241 -256 464 -272 494 -42 77 -156
282 -167 300 -5 8 -18 32 -30 54 -11 21 -82 149 -157 285 -75 135 -152 275
-171 311 -20 36 -57 103 -84 149 -26 46 -48 86 -48 88 0 1 -29 55 -65 118 -36
63 -65 117 -65 120 0 3 -10 22 -23 43 -13 20 -37 62 -54 92 -67 122 -206 375
-303 550 -97 175 -236 428 -303 550 -17 30 -41 72 -54 92 -13 21 -23 40 -23
43 0 3 -29 57 -65 120 -36 63 -65 117 -65 118 0 2 -22 42 -48 88 -27 46 -67
118 -89 159 -23 41 -51 93 -64 116 -12 22 -38 51 -57 63 l-35 23 -637 2 c-350
0 -645 0 -656 -2z"/>
<path d="M284 3036 c-17 -8 -44 -31 -60 -52 l-29 -37 0 -801 c0 -790 0 -802
21 -841 41 -79 29 -77 551 -77 519 0 500 -3 543 75 47 84 76 23 -443 947 -19
33 -212 378 -272 485 -15 28 -42 75 -58 105 -75 135 -103 175 -137 192 -42 21
-75 22 -116 4z"/>
</g>
</svg>
